<?xml version="1.0" standalone="no"?>
<!DOCTYPE svg PUBLIC "-//W3C//DTD SVG 20010904//EN"
 "http://www.w3.org/TR/2001/REC-SVG-20010904/DTD/svg10.dtd">
<svg version="1.0" xmlns="http://www.w3.org/2000/svg"
 width="573.000000pt" height="573.000000pt" viewBox="0 0 573.000000 573.000000"
 preserveAspectRatio="xMidYMid meet">
<metadata>
Created by potrace 1.14, written by Peter Selinger 2001-2017
</metadata>
<g transform="translate(0.000000,573.000000) scale(0.100000,-0.100000)"
fill="#000000" stroke="none">
<path d="M2470 5680 c0 -5 -19 -10 -42 -10 -135 -1 -309 -74 -405 -171 -34
-34 -67 -75 -74 -91 -11 -26 -29 -39 -29 -20 0 5 -26 34 -57 66 -124 125 -325
196 -553 196 -128 -1 -145 -3 -285 -38 -202 -51 -391 -180 -472 -322 -63 -109
-84 -246 -58 -366 6 -29 4 -32 -25 -42 -93 -33 -208 -131 -283 -242 -59 -87
-119 -226 -142 -331 -9 -41 -22 -83 -28 -94 -9 -15 -13 -298 -15 -1078 -2
-910 0 -1063 12 -1090 8 -18 20 -52 27 -77 30 -111 159 -382 245 -518 19 -29
34 -55 34 -58 0 -4 29 -48 65 -100 36 -52 65 -96 65 -99 0 -8 279 -398 410
-573 l95 -127 235 -116 c129 -65 318 -149 420 -188 181 -69 189 -71 395 -101
135 -19 291 -33 435 -40 124 -5 257 -12 296 -15 l71 -6 78 66 c188 156 396
235 616 235 73 0 70 13 -9 35 -31 8 -65 20 -74 25 -21 12 -255 60 -292 60 -22
0 -59 13 -74 25 -3 3 19 52 89 201 50 105 44 106 -83 13 -117 -86 -160 -112
-299 -182 -123 -61 -264 -110 -384 -133 -90 -17 -330 -17 -420 0 -237 45 -469
160 -708 350 -184 147 -526 502 -764 795 -43 53 -175 304 -208 396 -10 28 -22
55 -26 60 -18 26 -90 313 -103 415 -8 63 -18 138 -22 165 -3 28 -7 196 -7 375
-1 424 33 902 82 1184 21 117 66 265 102 338 73 146 184 242 309 267 103 21
165 33 320 62 429 80 547 101 685 125 83 13 159 29 170 34 11 5 88 20 170 34
83 13 168 29 190 35 65 17 161 14 203 -8 57 -29 97 -115 175 -376 16 -53 15
-281 -1 -297 -7 -7 -12 -20 -12 -30 0 -74 -128 -277 -255 -403 -83 -83 -251
-209 -348 -262 -29 -16 -61 -34 -72 -41 -43 -24 -173 -81 -225 -97 -30 -10
-59 -21 -65 -25 -5 -4 -53 -17 -105 -29 -52 -13 -104 -27 -115 -32 -11 -5 -78
-18 -150 -30 -71 -11 -134 -25 -140 -30 -6 -6 -6 -9 0 -9 6 0 64 -8 130 -16
66 -9 150 -19 187 -21 l67 -5 7 -66 c18 -162 2 -489 -27 -541 -4 -9 -17 -49
-28 -88 -19 -70 -19 -73 -1 -63 10 6 31 28 47 49 15 22 64 85 108 141 44 56
82 107 85 113 7 15 92 147 94 147 12 0 361 -161 506 -232 323 -160 516 -281
668 -417 87 -78 241 -254 242 -275 0 -4 15 -34 34 -65 47 -79 103 -248 121
-366 8 -55 15 -159 15 -232 0 -72 4 -134 9 -137 9 -6 14 9 27 89 4 22 10 45
14 50 17 23 59 383 69 585 l6 135 22 -35 c13 -19 23 -38 23 -42 0 -4 13 -35
29 -70 16 -35 37 -90 46 -123 9 -33 20 -69 25 -80 8 -18 27 -112 45 -217 9
-59 22 -45 29 35 4 39 12 124 18 187 6 63 14 200 17 305 l6 189 48 -54 c61
-70 120 -169 141 -240 10 -30 21 -62 26 -71 5 -9 14 -44 21 -77 7 -34 16 -59
20 -56 4 2 10 30 14 62 25 232 49 326 116 453 45 84 141 170 222 199 34 12 71
27 82 33 14 8 92 12 250 12 200 0 237 2 285 19 99 34 176 110 249 246 68 125
250 497 256 523 21 83 32 -6 41 -338 12 -420 -30 -777 -131 -1101 -52 -163
-115 -322 -172 -429 -8 -16 -27 -52 -41 -80 -13 -27 -32 -58 -40 -68 -8 -9
-25 -54 -38 -100 -33 -122 -73 -249 -84 -272 -5 -11 -19 -47 -31 -80 -12 -33
-29 -71 -38 -85 -10 -14 -22 -36 -28 -50 -16 -39 -157 -184 -216 -223 -78 -52
-203 -113 -282 -137 -38 -11 -78 -25 -87 -31 -10 -5 -61 -14 -113 -21 -52 -7
-95 -16 -95 -20 0 -10 0 -10 99 -32 82 -18 221 -83 262 -122 26 -25 27 -25
130 -16 141 12 212 47 264 128 112 175 230 394 269 499 10 28 22 55 26 60 9
12 84 247 104 329 9 32 20 63 25 70 21 25 151 288 184 372 103 256 170 526
203 809 34 299 37 588 9 840 -3 28 -15 136 -26 240 -12 105 -25 198 -31 208
-7 14 9 63 66 205 41 103 79 205 85 227 14 52 14 239 0 290 -61 224 -264 416
-537 507 -90 31 -106 33 -232 33 -138 0 -176 -8 -280 -62 -14 -7 -28 -13 -31
-13 -3 0 -9 39 -12 86 -4 74 -10 97 -43 163 -64 126 -183 233 -332 297 -32 14
-66 29 -77 34 -68 30 -268 65 -370 64 -110 -1 -329 -42 -345 -64 -3 -4 -16
-11 -29 -15 -13 -4 -58 -31 -102 -60 l-78 -54 -29 52 c-40 70 -113 141 -192
188 -108 64 -290 119 -392 119 -21 0 -38 5 -38 10 0 6 -28 10 -65 10 -37 0
-65 -4 -65 -10z m290 -184 c144 -38 272 -131 326 -237 33 -66 42 -171 25 -324
-6 -55 -24 -228 -40 -385 -58 -557 -90 -836 -100 -880 -6 -25 -20 -126 -32
-224 -23 -200 -38 -244 -98 -299 -21 -19 -60 -42 -87 -51 -27 -10 -57 -22 -66
-27 -9 -5 -59 -11 -110 -15 -238 -15 -461 76 -540 222 -16 29 -29 74 -34 111
l-7 62 33 18 c62 34 244 178 338 268 130 125 251 302 292 430 7 22 16 45 21
51 16 19 39 187 39 278 0 166 -36 314 -117 485 -48 101 -104 165 -177 204 -36
19 -56 22 -166 22 -69 0 -140 -3 -159 -7 -33 -8 -33 -7 -28 21 12 57 92 174
132 192 11 5 41 23 67 39 82 51 186 71 333 65 55 -3 125 -11 155 -19z m-1335
-26 c3 -5 19 -10 35 -10 46 0 161 -40 215 -74 84 -55 152 -138 169 -208 7 -32
18 -28 -154 -58 -117 -21 -307 -57 -595 -111 -88 -17 -216 -40 -285 -52 l-125
-23 -5 41 c-3 22 -1 69 3 105 22 170 200 323 431 371 48 10 91 20 94 23 10 10
211 6 217 -4z m2570 -171 c87 -16 231 -75 303 -126 125 -89 201 -229 189 -350
-14 -129 -121 -780 -134 -813 -4 -8 -21 -80 -39 -160 -43 -195 -82 -351 -94
-375 -5 -11 -19 -56 -30 -100 -12 -44 -36 -122 -53 -174 -27 -84 -37 -101 -87
-151 -44 -44 -74 -64 -141 -91 -82 -33 -87 -34 -225 -34 -86 0 -150 5 -165 12
-13 6 -52 21 -86 33 -74 26 -166 98 -211 164 -62 93 -66 123 -58 481 4 176 13
394 21 485 46 565 76 878 84 895 6 11 20 43 31 72 29 70 109 144 202 187 133
62 305 78 493 45z m1055 -589 c50 -11 53 -13 160 -64 163 -78 232 -144 313
-300 28 -54 31 -70 31 -146 0 -60 -5 -95 -17 -120 -9 -19 -25 -60 -36 -90 -11
-30 -38 -102 -61 -160 -23 -58 -57 -143 -75 -190 -30 -78 -74 -182 -107 -254
-19 -42 -186 -375 -206 -411 -76 -137 -119 -176 -219 -196 -247 -50 -544 156
-520 362 7 58 56 310 64 329 3 8 21 78 39 155 17 77 44 192 59 255 14 63 30
124 35 135 8 19 19 65 91 379 26 115 54 187 92 237 17 23 89 66 128 78 45 12
173 13 229 1z"/>
</g>
</svg>
